<svg width="126" height="20" viewBox="0 0 126 20" fill="none" xmlns="http://www.w3.org/2000/svg">
<path fill-rule="evenodd" clip-rule="evenodd" d="M27.7 0.900024L20 19H25.2L26.4 16H33.5L34.7 19H40L32.5 0.900024H27.7ZM5 1.00002H0V19H13.1L14.8 14.9H5V1.00002ZM30 6.80002L28 12H32L30 6.80002ZM59.6 9.60003C61.2 8.90002 62.4 7.70002 62.4 5.60002C62.4 4.30002 62 3.40002 61.2 2.60002C60.1 1.60002 58.5 1.00002 56.3 1.00002H47V19H56.3C60.6 19 63.1 17.1 63.1 14C63.1 11.6 61.8 10.3 59.6 9.60003ZM55.2 5.00002H52V8.00002H55C56.6 8.00002 57.4 7.60002 57.5 6.50002C57.5 5.50002 56.7 5.00002 55.2 5.00002ZM55.8 15H52V12H55.7C57.4 12 58.1 12.5 58.1 13.5C58.2 14.6 57.3 15 55.8 15ZM85.8 1.00002H91V12H93V16H91V19H86V15.9H77.3L76.7 12L85.8 1.00002ZM86 12H81.6L86 6.70002V12ZM120 11.2V1.00002H125.1V11.1C125.1 16.9 121.4 19.4 116.5 19.4C111.8 19.4 108.1 16.8 108.1 11.2V1.00002H113.1V11.1C113.1 13.7 114.5 14.9 116.5 14.9C118.5 14.9 120 13.7 120 11.2Z" fill="#00AACC"/>
</svg>
